<?xml version="1.0" encoding="UTF-8"?>
<svg width="500px" height="500px" viewBox="0 0 500 500" version="1.1" xmlns="http://www.w3.org/2000/svg" xmlns:xlink="http://www.w3.org/1999/xlink">
    <!-- Generator: Sketch 62 (91390) - https://sketch.com -->
    <title>illustration-codesafe</title>
    <desc>Created with Sketch.</desc>
    <defs>
        <linearGradient x1="50%" y1="12.8705929%" x2="50%" y2="100%" id="linearGradient-1">
            <stop stop-color="#FFFFFF" stop-opacity="0.27" offset="0%"></stop>
            <stop stop-color="#F2DAF2" offset="100%"></stop>
        </linearGradient>
    </defs>
    <g id="Page-1" stroke="none" stroke-width="1" fill="none" fill-rule="evenodd">
        <g id="Product-detail__CodeSafe" transform="translate(-96.000000, -772.000000)">
            <g id="illustration-codesafe" transform="translate(73.000000, 772.000000)">
                <g id="illustration-digitalsecurity" transform="translate(23.000000, 0.000000)">
                    <g>
                        <rect id="Rectangle" fill="#FFFFFF" x="0" y="0" width="500" height="500"></rect>
                        <polygon id="Polygon" fill="url(#linearGradient-1)" points="250 20 452.649944 137 452.649944 371 250 488 47.3500555 371 47.3500555 137"></polygon>
                    </g>
                </g>
                <g id="Icon/Card/Blue/ShieldCheck" transform="translate(312.000000, 32.000000)" fill-rule="nonzero">
                    <g id="shield-check">
                        <path d="M101.3625,19.05075 L58.1625,1.05075 C55.5048056,-0.0517689713 52.5176944,-0.0517689713 49.86,1.05075 L6.66,19.05075 C2.62829642,20.7240604 0,24.6598423 0,29.025 C0,73.6875 25.7625,104.55525 49.8375,114.59025 C52.4951944,115.692769 55.4823056,115.692769 58.14,114.59025 C77.4225,106.5555 108,78.81075 108,29.025 C108.003483,24.6653033 105.38538,20.7310489 101.3625,19.05075 Z M90.7425,44.748 L49.3425,86.148 C47.9342783,87.5424019 45.6657217,87.5424019 44.2575,86.148 L20.8575,62.748 C19.4628346,61.3390098 19.4628346,59.0697402 20.8575,57.66075 L25.9425,52.57575 C27.3512236,51.1825687 29.6187764,51.1825687 31.0275,52.57575 L46.8,68.34825 L80.5725,34.57575 C81.9812236,33.1825687 84.2487764,33.1825687 85.6575,34.57575 L90.7425,39.66075 C91.4225483,40.3324625 91.8053041,41.2485176 91.8053041,42.204375 C91.8053041,43.1602324 91.4225483,44.0762875 90.7425,44.748 Z" id="Shape" fill="#87189D"></path>
                        <path d="M90.7425,44.748 L49.3425,86.148 C47.9342783,87.5424019 45.6657217,87.5424019 44.2575,86.148 L20.8575,62.748 C19.4628346,61.3390098 19.4628346,59.0697402 20.8575,57.66075 L25.9425,52.57575 C27.3512236,51.1825687 29.6187764,51.1825687 31.0275,52.57575 L46.8,68.34825 L80.5725,34.57575 C81.9812236,33.1825687 84.2487764,33.1825687 85.6575,34.57575 L90.7425,39.66075 C91.4225483,40.3324625 91.8053041,41.2485176 91.8053041,42.204375 C91.8053041,43.1602324 91.4225483,44.0762875 90.7425,44.748 Z" id="Path" fill="#FFFFFF"></path>
                    </g>
                </g>
                <g id="Web" transform="translate(217.000000, 195.000000)">
                    <rect id="Container" fill="#CEA2D7" opacity="0.356654576" x="0" y="0" width="234.5" height="230" rx="5.6"></rect>
                    <rect id="Background" fill="#FFFFFF" x="174.3" y="30.1" width="49" height="56.7" rx="5.6"></rect>
                    <g id="Profile-Info" transform="translate(181.300000, 40.600000)" fill="#E9D2ED">
                        <circle id="Avatar" cx="17.5" cy="11.2" r="11.2"></circle>
                        <rect id="Name" x="0" y="25.2" width="35" height="4.2" rx="2.1"></rect>
                        <rect id="Name" x="5.6" y="32.2" width="23.8" height="4.2" rx="2.1"></rect>
                    </g>
                    <path d="M5.6,0 L228.9,0 C231.992795,-1.70498577e-14 234.5,2.5072054 234.5,5.6 L234.5,18.9 L234.5,18.9 L0,18.9 L0,5.6 C-3.78758101e-16,2.5072054 2.5072054,5.68137151e-16 5.6,0 Z" id="Header" fill="#D58AD5"></path>
                    <g id="Buttons" transform="translate(6.300000, 7.000000)" fill="#FFFFFF">
                        <circle id="buttons" cx="2.8" cy="2.8" r="2.8"></circle>
                        <circle id="buttons" cx="11.2" cy="2.8" r="2.8"></circle>
                        <circle id="buttons" cx="19.6" cy="2.8" r="2.8"></circle>
                    </g>
                    <g id="Components" transform="translate(174.300000, 92.400000)">
                        <rect id="Background" fill="#FFFFFF" x="0" y="0" width="49" height="128.810294" rx="5.6"></rect>
                        <g id="Rows" transform="translate(12.600000, 12.600000)">
                            <rect id="Data" fill="#E9D3ED" x="0" y="0" width="23.8" height="17.1675851" rx="2.8"></rect>
                            <rect id="Data" fill="#E9D3ED" x="0" y="22.449919" width="23.8" height="16.5072934" rx="2.8"></rect>
                            <rect id="Data" fill="#E9D3ED" x="0" y="44.2395462" width="23.8" height="16.5072934" rx="2.8"></rect>
                            <rect id="Data" fill="#E9D3ED" x="0" y="87.8188006" width="23.8" height="16.5072934" rx="2.8"></rect>
                            <rect id="Data" fill="#C997D3" x="0" y="66.0291734" width="23.8" height="16.5072934" rx="2.8"></rect>
                        </g>
                    </g>
                    <g id="Rows" transform="translate(10.200000, 30.800000)">
                        <g id="Row" transform="translate(1.000000, 0.000000)">
                            <rect id="Container" fill="#FFFFFF" x="0" y="0" width="157.5" height="32.9" rx="2.8"></rect>
                            <g id="Text-Stuff" transform="translate(6.300000, 9.870000)" fill="#E2C8E8">
                                <rect id="Label" x="0" y="0" width="116.9" height="4.935" rx="2.1"></rect>
                                <rect id="Label" x="0" y="8.225" width="78.4671233" height="4.935" rx="2.1"></rect>
                            </g>
                            <g id="Check" transform="translate(135.767939, 11.550000)" fill="#EAD5EE">
                                <circle id="Background" cx="4.9" cy="4.9" r="4.9"></circle>
                            </g>
                        </g>
                        <g id="Row-Copy" transform="translate(0.800000, 39.200000)">
                            <rect id="Container" fill="#FFFFFF" x="0" y="0" width="157.5" height="32.9" rx="2.8"></rect>
                            <g id="Text-Stuff" transform="translate(6.300000, 9.870000)" fill="#E2C8E8">
                                <rect id="Label" x="0" y="0" width="116.9" height="4.935" rx="2.1"></rect>
                                <rect id="Label" x="0" y="8.225" width="78.4671233" height="4.935" rx="2.1"></rect>
                            </g>
                            <g id="Check" transform="translate(135.767939, 11.550000)" fill="#EAD5EE">
                                <circle id="Background" cx="4.9" cy="4.9" r="4.9"></circle>
                            </g>
                        </g>
                        <g id="Row-Copy-2" transform="translate(0.800000, 78.200000)">
                            <rect id="Container" fill="#FFFFFF" x="0" y="0" width="157.5" height="32.9" rx="2.8"></rect>
                            <g id="Text-Stuff" transform="translate(6.300000, 9.870000)" fill="#E2C8E8">
                                <rect id="Label" x="0" y="0" width="116.9" height="4.935" rx="2.1"></rect>
                                <rect id="Label" x="0" y="8.225" width="78.4671233" height="4.935" rx="2.1"></rect>
                            </g>
                            <g id="Check" transform="translate(135.767939, 11.550000)" fill="#EAD5EE">
                                <circle id="Background" cx="4.9" cy="4.9" r="4.9"></circle>
                            </g>
                        </g>
                        <g id="Row-Copy-3" transform="translate(0.800000, 117.200000)">
                            <rect id="Container" fill="#FFFFFF" x="0" y="0" width="157.5" height="32.9" rx="2.8"></rect>
                            <g id="Text-Stuff" transform="translate(6.300000, 9.870000)" fill="#E2C8E8">
                                <rect id="Label" x="0" y="0" width="116.9" height="4.935" rx="2.1"></rect>
                                <rect id="Label" x="0" y="8.225" width="78.4671233" height="4.935" rx="2.1"></rect>
                            </g>
                            <g id="Check" transform="translate(135.767939, 11.550000)" fill="#EAD5EE">
                                <circle id="Background" cx="4.9" cy="4.9" r="4.9"></circle>
                            </g>
                        </g>
                        <g id="Row-Copy-4" transform="translate(0.800000, 156.200000)">
                            <rect id="Container" fill="#FFFFFF" x="0" y="0" width="157.5" height="32.9" rx="2.8"></rect>
                            <g id="Text-Stuff" transform="translate(6.300000, 9.870000)" fill="#E2C8E8">
                                <rect id="Label" x="0" y="0" width="116.9" height="4.935" rx="2.1"></rect>
                                <rect id="Label" x="0" y="8.225" width="78.4671233" height="4.935" rx="2.1"></rect>
                            </g>
                            <g id="Check" transform="translate(135.767939, 11.550000)" fill="#EAD5EE">
                                <circle id="Background" cx="4.9" cy="4.9" r="4.9"></circle>
                            </g>
                        </g>
                    </g>
                </g>
                <g id="Head/Front/Pony-Glasses" transform="translate(81.000000, 31.000000)">
                    <g id="Head" stroke-width="1" transform="translate(54.000000, 31.000000)" fill="#F0D5F0">
                        <path d="M38.1433414,9.13393292 C43.9381521,19.9350547 43.249578,47.3329958 35.7603014,49.2634576 C32.773664,50.0333035 26.4113241,48.1475566 19.935865,44.2446031 L24,73 L0,73 L8.26160177,34.4893378 C3.65406109,29.0807313 0.535660132,22.452516 1.05677633,15.0254539 C2.55833022,-6.37502057 32.3485306,-1.66718886 38.1433414,9.13393292 Z"></path>
                    </g>
                    <path d="M40.3818359,32.4465831 C48.7142304,24.6578386 60.5010803,26.1920449 61.8151292,33.341193 C73.876631,25.2365961 95.0198586,29.9993406 92.6071441,41.2806601 C91.2626171,47.5673707 83.9814383,50.7073555 76.818281,54.067812 C75.7649022,52.2369923 73.7540137,51 71.4466684,51 C68.0464589,51 65.2900445,53.6862915 65.2900445,57 C65.2900445,58.1935612 65.647651,59.3057239 66.2641422,60.2402777 C63.8547022,62.3363574 62.1544354,64.8594168 61.7432388,68.1317726 C57.070303,68.1317726 48.9323566,51.6235498 56.042308,39.4876104 C55.4283715,39.8753646 54.7491392,40.3894626 54,41.0658863 C47.4036458,47.0219621 47.4036458,57.1829427 54,71.5488281 C42.7560221,68.2140299 36.2158203,63.3644206 34.3793945,57 C31.6247559,47.4533691 31.5468551,40.7051227 40.3818359,32.4465831 Z" id="Hair" fill="#6D2077"></path>
                    <path d="M82.7818439,39.0130724 C84.1372954,34.946261 86.1008167,32.4325556 89.0345619,33.109864 C92.5315533,33.9172081 92.8019939,38.1952972 91.6132011,43.7197549 L91.6132011,43.7197549 L91.4724819,44.3503701 C90.1271539,50.1776261 87.9827337,54.2223662 84.3537803,53.3845563 C80.925395,52.5930512 80.5982015,48.4656477 81.7068719,43.0983563 C71.4429701,39.5309321 65.3238544,37.7472102 63.348468,37.7472102 C62.2636619,37.7472102 61.1038293,38.1718792 59.8689702,39.0212174 C59.3261202,39.3945415 58.5834059,39.2571591 58.2100484,38.714332 C57.9889131,38.3928217 57.9390038,37.9834822 58.0764079,37.6182565 L58.296221,37.0339843 C59.2048391,34.6188399 61.802094,33.2918236 64.291579,33.9707741 Z M88.381304,35.9394347 C87.3050445,35.6909606 85.6772087,38.7613351 84.745431,42.7973081 L84.745431,42.7973081 L84.6791227,43.0915802 C83.8199372,47.0007885 83.957029,50.3125719 85.0070382,50.5549856 C86.0832976,50.8034597 87.7111335,47.7330852 88.6429112,43.6971123 C89.574689,39.6611393 89.4575635,36.1879087 88.381304,35.9394347 Z" id="Combined-Shape" fill="#E1ACE1" transform="translate(75.125134, 43.247210) rotate(-69.000000) translate(-75.125134, -43.247210) "></path>
                </g>
                <g id="Bottom/Standing/PencilSkirt" transform="translate(0.000000, 237.000000)">
                    <path d="M105.592175,122.765376 C127.500815,129.475226 146.402927,132.830152 162.298512,132.830152 C178.194097,132.830152 192.958651,127.663626 206.592175,117.330576 C185.152578,110.443525 167.496115,107 153.622785,107 C139.749456,107 123.739252,112.255125 105.592175,122.765376 Z" id="Skirt-Shadow" fill="#C48DCF"></path>
                    <polygon id="Leg" fill="#F0D5F0" points="128 9.9475983e-14 165.630838 123.024171 183.860154 227.648304 198.153197 227.648304 178.890974 9.9475983e-14"></polygon>
                    <path d="M114.537727,0 C117.093705,67.5468821 114.085665,102.388787 113.513606,108.525715 C112.941548,114.662643 105.108196,154.454812 86.5636874,229.708469 L101.793992,224.477699 C131.10186,155.458959 141.088936,119.5887 144.450326,110.525715 C147.811717,101.46273 156.739403,64.6208249 171.233385,0 L114.537727,0 Z" id="Leg" fill="#F0D5F0"></path>
                    <g id="Accessories/Shoe/Heels" transform="translate(84.000000, 199.000000)" fill="#AD1AAC">
                        <path d="M0,40 L1,19 L22,19 C31.9576033,26 44.9576033,31.6666667 61,36 L61,40 L23,40 L10,27.5380859 L10,40 L0,40 Z" id="Shoe"></path>
                    </g>
                    <g id="Accessories/Shoe/Heels" transform="translate(178.000000, 199.000000)" fill="#AD1AAC">
                        <path d="M0,40 L1,19 L22,19 C31.9576033,26 44.9576033,31.6666667 61,36 L61,40 L23,40 L10,27.5380859 L10,40 L0,40 Z" id="Shoe"></path>
                    </g>
                    <path d="M117,2.21156427e-13 C139.546839,-6.45073907 160.880173,-6.45073907 181,2.21156427e-13 C186.739619,26.1869853 188.417266,58.4554818 194.029297,95.6416082 C195.261661,103.807427 206.053621,110.683553 206.592175,119.5 C172.592175,136.393798 138.353516,114.120849 103.353516,130.595703 C100.336096,123.642301 110.063271,110.766872 110.003906,95.6416082 C109.866531,60.6403807 105.827871,13.5912571 117,2.21156427e-13 Z" id="Skirt" fill="#D9B6E0"></path>
                </g>
                <g id="Body/Jacket-Arm-Raised" transform="translate(51.000000, 123.000000)">
                    <path d="M35.3079281,93.0198914 C28.6549068,131.648706 24.3515741,152.944826 22.3979297,156.908251 C20.9653015,159.814672 10.3623323,168.644547 3.00457838,173.68967 C0.0512757083,175.714714 1.27360523,178.306117 2.38903521,178.994371 C11.4616931,184.59248 17.4352209,177.972846 25.2879189,174.319492 C33.8912241,170.316929 33.1645409,181.61887 39.9845874,178.567103 C37.8906002,173.873732 32.9939846,165.140133 35.3079281,159.405597 C36.3363474,156.856914 43.3021447,134.755739 56.2053198,93.1020711 L35.3079281,93.0198914 Z" id="Skin" fill="#F0D5F0"></path>
                    <g id="Group" stroke-width="1" transform="translate(180.191137, 13.406121) rotate(-53.000000) translate(-180.191137, -13.406121) translate(114.191137, -70.593879)">
                        <path d="M73.8315513,107.71586 L104.46021,132.776784 C112.977645,135.560846 130.645432,142.498521 136.260212,146.272039 C137.564086,147.591492 128.484864,146.546121 122.829088,145.811823 C117.173311,145.077525 117.320098,143.614366 116.435044,145.510206 C115.549991,147.406046 105.108439,150.434825 96.7363565,139.487712 L65.8775181,124.75389 L73.8315513,107.71586 Z" id="Arm" fill="#F0D5F0" transform="translate(101.132092, 127.549848) scale(1, -1) rotate(-70.000000) translate(-101.132092, -127.549848) "></path>
                        <path d="M6,6.23117068 L14.4849515,4 C32.5571847,39.7511761 61.3955342,71.1492742 101,98.1942945 L76.0428023,134.564221 C35.3198301,94.6849262 8.65158029,52.1977618 6,6.23117068 Z" id="Coat-Back" fill="#A654B7" transform="translate(53.500000, 69.282111) rotate(5.000000) translate(-53.500000, -69.282111) "></path>
                    </g>
                    <path d="M90.109838,9.27962725 L98.5947896,7.04845658 C116.667023,42.7996327 145.505372,74.1977308 185.109838,101.242751 L124.67268,112.58053 C83.9497079,72.7012345 92.7614183,55.2462184 90.109838,9.27962725 Z" id="Coat-Back" fill="#A654B7" transform="translate(137.609838, 59.814493) rotate(5.000000) translate(-137.609838, -59.814493) "></path>
                    <path d="M90.109838,9.27962725 L98.5947896,7.04845658 C116.667023,42.7996327 145.505372,74.1977308 185.109838,101.242751 L124.67268,112.58053 C83.9497079,72.7012345 92.7614183,55.2462184 90.109838,9.27962725 Z" id="Coat-Back" fill-opacity="0.1" fill="#000000" transform="translate(137.609838, 59.814493) rotate(5.000000) translate(-137.609838, -59.814493) "></path>
                    <path d="M57,114 L134,114 C116.16087,70.6251468 107.241304,33.7787236 107.241304,3.4607303 L84.014208,0 C65.7598929,29.3584068 60.6048263,65.5045499 57,114 Z" id="Shirt" fill="#D58AD5"></path>
                    <path d="M85.0477521,-4.26325641e-14 C86.8619801,0.0624731357 89.6252821,0.175030894 93.3376583,0.337673275 L93.3376583,0.337673275 L98.9501582,16.3768801 C99.5438362,35.9324229 103.010826,75.3421183 109.351127,134.605966 L109.351127,134.605966 L58.8760675,134.60553 C59.008386,138.698782 59.2265651,142.830272 59.5306047,147 L59.5306047,147 L22,147 C27.6139164,83.6639633 48.1152373,34.6639633 83.5039627,1.42108547e-14 L83.5039627,1.42108547e-14 L83.522,0.017 L83.5315827,-4.26325641e-14 Z" id="Coat-Front" fill="#A654B7"></path>
                    <path d="M106,135 L91.889057,134.999288 C91.2713571,116.643048 92.3783198,99.0548837 95.2099449,82.2347951 C96.6469231,107.748771 100.243477,125.3371 106,135 Z" id="Shade" fill-opacity="0.1" fill="#000000"></path>
                    <polygon id="Light" fill-opacity="0.2" fill="#FFFFFF" points="70.1108989 104 95 92.4292718 95 104"></polygon>
                </g>
            </g>
        </g>
    </g>
</svg>