<?xml version="1.0" encoding="UTF-8"?>
<svg width="500px" height="500px" viewBox="0 0 500 500" version="1.1" xmlns="http://www.w3.org/2000/svg" xmlns:xlink="http://www.w3.org/1999/xlink">
    <!-- Generator: Sketch 62 (91390) - https://sketch.com -->
    <title>illustration-HSMonitor</title>
    <desc>Created with Sketch.</desc>
    <defs>
        <rect id="path-1" x="0" y="0" width="500" height="500"></rect>
        <linearGradient x1="50%" y1="-3.42881944%" x2="50%" y2="83.1706801%" id="linearGradient-3">
            <stop stop-color="#AD1AAC" stop-opacity="0.320476399" offset="0%"></stop>
            <stop stop-color="#FFFFFF" stop-opacity="0.59" offset="99.9656883%"></stop>
        </linearGradient>
    </defs>
    <g id="Page-1" stroke="none" stroke-width="1" fill="none" fill-rule="evenodd">
        <g id="Product-detail__Monitor_1" transform="translate(-70.000000, -772.000000)">
            <g id="illustration-HSMonitor" transform="translate(70.000000, 772.000000)">
                <mask id="mask-2" fill="white">
                    <use xlink:href="#path-1"></use>
                </mask>
                <use id="Rectangle" fill="#FFFFFF" xlink:href="#path-1"></use>
                <polygon id="Polygon" fill-opacity="0.32" fill="url(#linearGradient-3)" points="250 16 452.649944 133 452.649944 367 250 484 47.3500555 367 47.3500555 133"></polygon>
                <path d="M173.045592,372.786939 C176.326005,372.786939 178.985305,370.126663 178.985305,366.845047 C178.985305,363.56343 176.326005,360.903154 173.045592,360.903154 C169.765179,360.903154 167.105878,363.56343 167.105878,366.845047 C167.105878,370.126663 169.765179,372.786939 173.045592,372.786939 Z M173.045592,440.128387 C169.765179,440.128387 167.105878,442.788663 167.105878,446.070279 C167.105878,449.351896 169.765179,452.012172 173.045592,452.012172 C176.326005,452.012172 178.985305,449.351896 178.985305,446.070279 C178.985305,442.788663 176.326005,440.128387 173.045592,440.128387 Z M184.925019,390.612616 L74.050366,390.612616 C69.6764817,390.612616 66.130748,394.159651 66.130748,398.53514 L66.130748,414.380186 C66.130748,418.755675 69.6764817,422.302709 74.050366,422.302709 L184.925019,422.302709 C189.298903,422.302709 192.844637,418.755675 192.844637,414.380186 L192.844637,398.53514 C192.844637,394.159651 189.298903,390.612616 184.925019,390.612616 Z M157.206356,412.399555 C153.925942,412.399555 151.266642,409.739279 151.266642,406.457663 C151.266642,403.176046 153.925942,400.51577 157.206356,400.51577 C160.486769,400.51577 163.146069,403.176046 163.146069,406.457663 C163.146069,409.739279 160.486769,412.399555 157.206356,412.399555 Z M173.045592,412.399555 C169.765179,412.399555 167.105878,409.739279 167.105878,406.457663 C167.105878,403.176046 169.765179,400.51577 173.045592,400.51577 C176.326005,400.51577 178.985305,403.176046 178.985305,406.457663 C178.985305,409.739279 176.326005,412.399555 173.045592,412.399555 Z" id="Shape" fill="#D9B6E0" transform="translate(129.487692, 406.457663) scale(-1, 1) translate(-129.487692, -406.457663) "></path>
                <path d="M178.985305,406.457663 C178.985305,403.176046 176.326005,400.51577 173.045592,400.51577 C169.765179,400.51577 167.105878,403.176046 167.105878,406.457663 C167.105878,409.739279 169.765179,412.399555 173.045592,412.399555 C176.326005,412.399555 178.985305,409.739279 178.985305,406.457663 Z M184.925019,351 L74.050366,351 C69.6764817,351 66.130748,354.547034 66.130748,358.922523 L66.130748,374.76757 C66.130748,379.143059 69.6764817,382.690093 74.050366,382.690093 L184.925019,382.690093 C189.298903,382.690093 192.844637,379.143059 192.844637,374.76757 L192.844637,358.922523 C192.844637,354.547034 189.298903,351 184.925019,351 Z M157.206356,372.786939 C153.925942,372.786939 151.266642,370.126663 151.266642,366.845047 C151.266642,363.56343 153.925942,360.903154 157.206356,360.903154 C160.486769,360.903154 163.146069,363.56343 163.146069,366.845047 C163.146069,370.126663 160.486769,372.786939 157.206356,372.786939 L157.206356,372.786939 Z M173.045592,372.786939 C169.765179,372.786939 167.105878,370.126663 167.105878,366.845047 C167.105878,363.56343 169.765179,360.903154 173.045592,360.903154 C176.326005,360.903154 178.985305,363.56343 178.985305,366.845047 C178.985305,370.126663 176.326005,372.786939 173.045592,372.786939 L173.045592,372.786939 Z M184.925019,430.225233 L74.050366,430.225233 C69.6764817,430.225233 66.130748,433.772267 66.130748,438.147756 L66.130748,453.992803 C66.130748,458.368291 69.6764817,461.915326 74.050366,461.915326 L184.925019,461.915326 C189.298903,461.915326 192.844637,458.368291 192.844637,453.992803 L192.844637,438.147756 C192.844637,433.772267 189.298903,430.225233 184.925019,430.225233 Z M157.206356,452.012172 C153.925942,452.012172 151.266642,449.351896 151.266642,446.070279 C151.266642,442.788663 153.925942,440.128387 157.206356,440.128387 C160.486769,440.128387 163.146069,442.788663 163.146069,446.070279 C163.146069,449.351896 160.486769,452.012172 157.206356,452.012172 Z M173.045592,452.012172 C169.765179,452.012172 167.105878,449.351896 167.105878,446.070279 C167.105878,442.788663 169.765179,440.128387 173.045592,440.128387 C176.326005,440.128387 178.985305,442.788663 178.985305,446.070279 C178.985305,449.351896 176.326005,452.012172 173.045592,452.012172 Z" id="Shape" fill="#D9B6E0" transform="translate(129.487692, 406.457663) scale(-1, 1) translate(-129.487692, -406.457663) "></path>
                <g id="desktop" transform="translate(266.000000, 189.000000)">
                    <rect id="Rectangle" fill="#87189D" x="10" y="17" width="125" height="80"></rect>
                    <g id="Icon/Card/Purple/Metrics" transform="translate(100.000000, 55.000000) scale(-1, 1) translate(-100.000000, -55.000000) translate(73.000000, 28.000000)" fill="#FFFFFF" fill-rule="nonzero">
                        <g id="chart-pie-alt" transform="translate(0.400000, 0.400000)">
                            <path d="M47.2080409,29.5760234 C48.1843567,29.5760234 48.9877193,30.4346491 48.8516082,31.4017544 C47.1302632,43.5883041 36.4910819,52.9093567 23.7355263,52.4866959 C11.0434211,52.0701754 0.429824561,41.4576023 0.0133040936,28.7644737 C-0.405263158,16.0089181 8.91681287,5.36973684 21.0951754,3.64839181 C22.0653509,3.5122807 22.9239766,4.31461988 22.9239766,5.29195906 L22.9239766,29.5760234 L47.2080409,29.5760234 Z" id="Path" opacity="0.4"></path>
                            <path d="M52.3976608,22.9444444 C52.4611111,23.8767544 51.6812865,24.6637427 50.7407895,24.6637427 L27.8362573,24.6637427 L27.8362573,1.76432749 C27.8362573,0.828947368 28.6222222,0.0419590643 29.5555556,0.102339181 C41.7809942,0.949707602 51.5502924,10.7190058 52.3976608,22.9444444 Z" id="Path"></path>
                        </g>
                    </g>
                    <path d="M137.5,0 L12.5,0 C5.59644063,0 0,5.59644063 0,12.5 L0,95.8333333 C0,102.736893 5.59644063,108.333333 12.5,108.333333 L137.5,108.333333 C144.403559,108.333333 150,102.736893 150,95.8333333 L150,12.5 C150,5.59644063 144.403559,0 137.5,0 Z M133.333333,91.6666667 L16.6666667,91.6666667 L16.6666667,16.6666667 L133.333333,16.6666667 L133.333333,91.6666667 Z" id="Shape" fill="#D9B6E0" fill-rule="nonzero"></path>
                    <path d="M110.416667,120.833333 L91.6666667,120.833333 L87.5,108.333333 L62.5,108.333333 L58.3333333,120.833333 L39.5833333,120.833333 C36.1315536,120.833333 33.3333333,123.631554 33.3333333,127.083333 C33.3333333,130.535113 36.1315536,133.333333 39.5833333,133.333333 L110.416667,133.333333 C113.868446,133.333333 116.666667,130.535113 116.666667,127.083333 C116.666667,123.631554 113.868446,120.833333 110.416667,120.833333 L110.416667,120.833333 Z" id="Shape" fill="#D9B6E0" fill-rule="nonzero"></path>
                    <path d="M44.8416,51.096 L39.9264,51.096 C39.1072,51.096 38.288,51.9152 38.288,52.7344 L38.288,78.1296 C38.288,78.9488 39.1072,79.768 39.9264,79.768 L44.8416,79.768 C45.6608,79.768 46.48,78.9488 46.48,78.1296 L46.48,52.7344 C46.48,51.9152 45.6608,51.096 44.8416,51.096 Z M32.5536,67.48 L27.6384,67.48 C26.8192,67.48 26,68.2992 26,69.1184 L26,78.1296 C26,78.9488 26.8192,79.768 27.6384,79.768 L32.5536,79.768 C33.3728,79.768 34.192,78.9488 34.192,78.1296 L34.192,69.1184 C34.192,68.2992 33.3728,67.48 32.5536,67.48 L32.5536,67.48 Z M69.4176,47 L64.5024,47 C63.6832,47 62.864,47.8192 62.864,48.6384 L62.864,78.1296 C62.864,78.9488 63.6832,79.768 64.5024,79.768 L69.4176,79.768 C70.2368,79.768 71.056,78.9488 71.056,78.1296 L71.056,48.6384 C71.056,47.8192 70.2368,47 69.4176,47 Z M57.1296,59.288 L52.2144,59.288 C51.3952,59.288 50.576,60.1072 50.576,60.9264 L50.576,78.1296 C50.576,78.9488 51.3952,79.768 52.2144,79.768 L57.1296,79.768 C57.9488,79.768 58.768,78.9488 58.768,78.1296 L58.768,60.9264 C58.768,60.1072 57.9488,59.288 57.1296,59.288 Z" id="Shape" fill="#FFFFFF" fill-rule="nonzero" transform="translate(48.528000, 63.384000) scale(-1, 1) translate(-48.528000, -63.384000) "></path>
                </g>
                <g id="Clock" transform="translate(202.000000, 54.000000)">
                    <circle id="Clock-Frame" fill="#FFFFFF" cx="47.7" cy="47.7" r="47.7"></circle>
                    <circle id="Time" fill="#C68FD1" cx="47.7" cy="9.9" r="2.7"></circle>
                    <circle id="Time" fill="#C68FD1" cx="9.9" cy="47.7" r="2.7"></circle>
                    <circle id="Time" fill="#C68FD1" cx="85.5" cy="47.7" r="2.7"></circle>
                    <circle id="Time" fill="#C68FD1" cx="47.7" cy="85.5" r="2.7"></circle>
                    <polygon id="Hand" fill="#C68FD1" points="47.7 15.3 49.5 46.8 45.9 46.8"></polygon>
                    <polygon id="Hand" fill="#C68FD1" transform="translate(55.991883, 55.991883) rotate(135.000000) translate(-55.991883, -55.991883) " points="55.9918831 45.1918831 57.7918831 66.7918831 54.1918831 66.7918831"></polygon>
                    <circle id="Time" fill="#C68FD1" cx="47.7" cy="47.7" r="3.6"></circle>
                </g>
                <path d="M433,322 L433,344 L432.999,344 L433,473 L412,473 L411.999,344 L270,344 L270,473 L249,473 L249,322 L433,322 Z" id="Table" fill="#D9B6E0"></path>
                <g id="Partner-2" transform="translate(155.500000, 291.500000) scale(-1, 1) translate(-155.500000, -291.500000) translate(50.000000, 110.000000)">
                    <g id="Head/Front/Short-1" transform="translate(143.000000, 52.000000) scale(-1, 1) translate(-143.000000, -52.000000) translate(75.000000, 0.000000)">
                        <g id="Head" stroke-width="1" transform="translate(54.000000, 31.000000)" fill="#BE9CC2">
                            <path d="M38.1433414,9.13393292 C43.9381521,19.9350547 43.249578,47.3329958 35.7603014,49.2634576 C32.773664,50.0333035 26.4113241,48.1475566 19.935865,44.2446031 L24,73 L0,73 L8.26160177,34.4893378 C3.65406109,29.0807313 0.535660132,22.452516 1.05677633,15.0254539 C2.55833022,-6.37502057 32.3485306,-1.66718886 38.1433414,9.13393292 Z"></path>
                        </g>
                        <path d="M56.8333728,40.5449439 C62.305436,18.061277 93.269175,32.0204355 99.2270045,28.2267775 C100.529381,36.3900449 96.3289005,42.9723487 81.5610809,41.7006155 C78.3025808,43.5210619 75.9844328,46.9352721 73.1938192,51.4139439 C72.5147713,51.1467554 71.7745239,51 71,51 C67.6862915,51 65,53.6862915 65,57 C65,58.6817919 65.6919409,60.2019722 66.806667,61.2913854 C65.4199418,63.2508354 63.8637166,65.2983771 62.0803863,67.4111902 C55.433612,63.4233961 50.4882201,51.8083878 56.812313,40.5875403 Z" id="Hair" fill="#6D2077"></path>
                    </g>
                    <g id="Bottom/Sitting/Skinny-Jeans-1" transform="translate(95.500000, 280.000000) scale(-1, 1) translate(-95.500000, -280.000000) translate(0.000000, 197.000000)">
                        <path d="M145.954028,20.756908 L146.24189,20.5887017 C154.50855,15.9575335 168.00938,22.2466943 168.000005,29.2384154 C167.971611,50.4029106 148.656682,150.1511 147.648224,156.456711 C146.639766,162.762321 135.83665,164.42787 135.20755,156.477375 C134.206544,143.826795 132.3468,100.033121 134.20755,79.7626522 C134.975689,71.3947628 135.802939,63.4254961 136.617343,56.3158982 C126.483775,74.6174738 110.808496,100.823961 89.593128,134.933778 L78.0765728,129.672175 C87.1201656,99.8760987 94.5357757,78.8408618 100.323403,66.5664641 C110.233227,45.5497154 119.525307,27.551672 123.436043,21.2120072 C129.587899,11.2392801 140.296386,14.7194928 145.954028,20.756908 Z" id="Skin" fill="#CFB5D2"></path>
                        <path d="M96.8192227,123.340112 L101.936922,21.8299349 C105.625361,4.27739957 136.84365,12.4235349 136.830816,21.8299349 C136.801666,43.1853748 123.973522,116.956762 123.964839,123.319261 L96.8192227,123.340112 Z" id="LegLower" fill="#6D2077" transform="translate(116.825019, 67.419630) rotate(20.000000) translate(-116.825019, -67.419630) "></path>
                        <g id="Accessories/Shoe/Flat-Pointy" transform="translate(103.500000, 133.000000) rotate(30.000000) translate(-103.500000, -133.000000) translate(73.000000, 113.000000)" fill="#6D2077">
                            <path d="M0,40 L1,19 L22,19 C31.9576033,26 44.9576033,31.6666667 61,36 L61,40 L23,40 L10,38 L10,40 L0,40 Z" id="Shoe"></path>
                        </g>
                        <g id="Accessories/Shoe/Flat-Pointy" transform="translate(130.000000, 126.000000)" fill="#6D2077">
                            <path d="M0,40 L1,19 L22,19 C31.9576033,26 44.9576033,31.6666667 61,36 L61,40 L23,40 L10,38 L10,40 L0,40 Z" id="Shoe"></path>
                        </g>
                        <path d="M170.770373,36.4330278 C170.770373,63 158.1536,124.970293 158.145616,130.820112 L131,130.840963 C134.973277,75.5454811 136.382172,47.5998928 135.226683,47.0041979 C133.49345,46.1106556 64.1758376,53.9250306 43.3863578,53.9250306 C13.4078252,53.9250306 1.00630654,35.0203971 9.09494702e-13,-3.55271368e-13 L59.3863578,-3.55271368e-13 C71.4779535,1.29386693 134.548825,14.0152568 157.972097,18.3884129 C168,20.2606358 170.770373,29.1145109 170.770373,36.4330278 Z" id="Leg-and-Butt" fill="#9963A0"></path>
                    </g>
                    <g id="Body/Pointing-Forward" transform="translate(104.000000, 166.500000) scale(-1, 1) translate(-104.000000, -166.500000) translate(14.000000, 94.000000)">
                        <path d="M161.556381,46.4077826 C165.889175,45.5157805 176.464286,37.6506887 178.286431,39.2475996 C180.982176,41.6101262 178.578484,48.864452 175.746364,52.4730906 C170.453134,59.2176317 166.070569,61.5240612 155.238377,64.5443446 C149.574749,66.1235046 143.451364,69.288795 136.868224,74.0402157 L136,58.7398397 L151.246523,50.3642065 C153.385826,42.2239107 155.943102,38.1282526 158.918351,38.0772323 C161.203961,37.0137608 157.223587,47.2997848 161.556381,46.4077826 Z M135.314801,11.541507 C132.515281,16.510379 129.794075,21.8627914 131.22032,23.3935933 C132.646565,24.9243953 136.203036,22.7859324 137.904525,25.3293729 C139.038851,27.0249998 132.962902,29.703613 119.676679,33.3652124 L94.4557923,56.4576422 L81.6380395,42.7002327 L116.347821,23.6898218 C122.119845,16.8355222 127.806897,11.5121983 133.408976,7.71984988 C135.120791,7.00519513 138.114322,6.57263502 135.314801,11.541507 Z" id="Skin" fill="#BE9CC2"></path>
                        <path d="M65.8579864,34.7503025 C77.8859975,36.5253162 94.3002887,36.5253162 113.103565,28.3861499 L117.443447,44.4123074 C103.805809,54.2415559 85.7127137,61.226516 71.2876941,58.5246963 C59.9199836,56.3955135 56.2717247,41.6595451 65.8579864,34.7503025 Z" id="Sleeve" fill="#A654B7" transform="translate(88.898282, 43.748060) rotate(-9.000000) translate(-88.898282, -43.748060) "></path>
                        <path d="M65.5437498,-1.27897692e-13 C67.0746794,19.6687489 74.7801887,41.3453869 81.1040065,62.7603513 C94.0105334,65.9801967 115.654578,62.1842978 146.035933,51.3734208 C153.571674,66.9635189 157.055257,78.0780631 156.486685,84.7170535 C130.420927,98.3327976 108.0808,104.402393 89.6761367,104.801687 C90.2685109,115.717837 88.9396772,126.110233 84.4739328,135.605966 C75.2946804,155.124265 21.5450578,137.048144 3.47278757,140.605966 C-7.84459943,103.85132 14.0379108,88.9143806 14.0555178,65.3966157 C14.0747993,39.6421572 34.7544101,-1.27897692e-13 37.7970006,-1.27897692e-13 L37.7970006,-1.27897692e-13 Z" id="Clothes" fill="#C48DCF"></path>
                    </g>
                </g>
            </g>
        </g>
    </g>
</svg>